<?xml version="1.0" standalone="no"?><!DOCTYPE svg PUBLIC "-//W3C//DTD SVG 1.1//EN" "http://www.w3.org/Graphics/SVG/1.1/DTD/svg11.dtd"><svg t="1641862705807" class="icon" viewBox="0 0 1024 1024" version="1.1" xmlns="http://www.w3.org/2000/svg" p-id="12783" width="40" height="40" xmlns:xlink="http://www.w3.org/1999/xlink"><defs><style type="text/css"></style></defs><path d="M762 362H382.71l56-56a50.16 50.16 0 0 0 0-70.71 50.16 50.16 0 0 0-70.71 0L226.58 376.71a49.52 49.52 0 0 0-12.94 22.63c0 0.1-0.06 0.2-0.08 0.3-0.15 0.57-0.28 1.15-0.4 1.73-0.06 0.27-0.13 0.54-0.18 0.81-0.09 0.44-0.16 0.87-0.23 1.3s-0.15 0.81-0.21 1.21-0.08 0.67-0.12 1q-0.1 0.74-0.18 1.47c0 0.3-0.05 0.6-0.07 0.91 0 0.51-0.08 1-0.11 1.53s0 1.06 0 1.59v0.81a49.84 49.84 0 0 0 14.58 35.39A49.84 49.84 0 0 0 262 462h500a50.15 50.15 0 0 0 50-50 50.15 50.15 0 0 0-50-50zM262 662h379.29l-56 56a50.16 50.16 0 0 0 0 70.71 50.16 50.16 0 0 0 70.71 0l141.42-141.42a49.52 49.52 0 0 0 12.94-22.63c0-0.1 0.06-0.2 0.08-0.3 0.15-0.57 0.28-1.15 0.4-1.73 0.06-0.27 0.13-0.54 0.18-0.81 0.09-0.44 0.16-0.87 0.23-1.3s0.15-0.81 0.21-1.21 0.08-0.67 0.12-1q0.1-0.73 0.18-1.47c0-0.3 0-0.6 0.07-0.91 0-0.51 0.08-1 0.11-1.53s0-1.06 0-1.59V612a49.84 49.84 0 0 0-14.58-35.39A49.84 49.84 0 0 0 762 562H262a50.15 50.15 0 0 0-50 50 50.15 50.15 0 0 0 50 50z" fill="#FE2F4D" p-id="12784"></path></svg>